<svg width="16" height="16" viewBox="0 0 16 16" fill="none" xmlns="http://www.w3.org/2000/svg">
<path d="M12.6667 11.3333H8C7.26467 11.3333 6.66667 11.9313 6.66667 12.6667C6.66667 13.402 7.26467 14 8 14H12.6667C13.402 14 14 13.402 14 12.6667C14 11.9313 13.402 11.3333 12.6667 11.3333ZM12.6667 6.66667H8C7.26467 6.66667 6.66667 7.26467 6.66667 8C6.66667 8.73533 7.26467 9.33333 8 9.33333H12.6667C13.402 9.33333 14 8.73533 14 8C14 7.26467 13.402 6.66667 12.6667 6.66667ZM12.6667 2H8C7.26467 2 6.66667 2.598 6.66667 3.33333C6.66667 4.06867 7.26467 4.66667 8 4.66667H12.6667C13.402 4.66667 14 4.06867 14 3.33333C14 2.598 13.402 2 12.6667 2Z" fill="white"/>
<path d="M3.33333 14.3333C4.25381 14.3333 5 13.5871 5 12.6667C5 11.7462 4.25381 11 3.33333 11C2.41286 11 1.66667 11.7462 1.66667 12.6667C1.66667 13.5871 2.41286 14.3333 3.33333 14.3333Z" fill="white"/>
<path d="M3.33333 9.66668C4.25381 9.66668 5 8.92048 5 8.00001C5 7.07954 4.25381 6.33334 3.33333 6.33334C2.41286 6.33334 1.66667 7.07954 1.66667 8.00001C1.66667 8.92048 2.41286 9.66668 3.33333 9.66668Z" fill="white"/>
<path d="M3.33333 4.99999C4.25381 4.99999 5 4.2538 5 3.33332C5 2.41285 4.25381 1.66666 3.33333 1.66666C2.41286 1.66666 1.66667 2.41285 1.66667 3.33332C1.66667 4.2538 2.41286 4.99999 3.33333 4.99999Z" fill="white"/>
</svg>
