<svg width="16" height="16" viewBox="0 0 16 16" fill="none" xmlns="http://www.w3.org/2000/svg">
<path d="M12.6667 8V9C13.3739 9 14.0522 9.28095 14.5523 9.78105C15.0524 10.2811 15.3333 10.9594 15.3333 11.6667C15.3333 12.2133 15.1667 12.72 14.8867 13.14L14.16 12.4133C14.2733 12.1867 14.3333 11.9333 14.3333 11.6667C14.3333 11.2246 14.1577 10.8007 13.8452 10.4882C13.5326 10.1756 13.1087 10 12.6667 10V11L11.1667 9.5L12.6667 8ZM12.6667 15.3333V14.3333C11.9594 14.3333 11.2811 14.0524 10.781 13.5523C10.281 13.0522 10 12.3739 10 11.6667C10 11.12 10.1667 10.6133 10.4467 10.1933L11.1733 10.92C11.06 11.1467 11 11.4 11 11.6667C11 12.1087 11.1756 12.5326 11.4882 12.8452C11.8007 13.1577 12.2246 13.3333 12.6667 13.3333V12.3333L14.1667 13.8333L12.6667 15.3333ZM8 2C10.9467 2 13.3333 3.19333 13.3333 4.66667C13.3333 6.14 10.9467 7.33333 8 7.33333C5.05333 7.33333 2.66667 6.14 2.66667 4.66667C2.66667 3.19333 5.05333 2 8 2ZM2.66667 6C2.66667 7.47333 5.05333 8.66667 8 8.66667C8.74 8.66667 9.44667 8.59333 10.0933 8.45333C9.46 9.02667 9 9.78 8.78667 10.64L8 10.6667C5.05333 10.6667 2.66667 9.47333 2.66667 8V6ZM13.3333 6V7.33333H13L12.6 7.35333C13.0667 6.95333 13.3333 6.49333 13.3333 6ZM2.66667 9.33333C2.66667 10.8067 5.05333 12 8 12L8.66667 11.98C8.72667 12.6867 8.94667 13.3333 9.3 13.92L8 14C5.05333 14 2.66667 12.8067 2.66667 11.3333V9.33333Z" fill="white"/>
</svg>
