<svg width="15" height="14" viewBox="0 0 15 14" fill="none" xmlns="http://www.w3.org/2000/svg">
<path d="M10.6667 6.99998C12.5067 6.99998 14 5.50665 14 3.66665C14 1.82665 12.5067 0.333313 10.6667 0.333313C8.82667 0.333313 7.33333 1.82665 7.33333 3.66665C7.33333 5.50665 8.82667 6.99998 10.6667 6.99998ZM14.3 10.7333C14.04 10.4666 13.7133 10.3333 13.3333 10.3333H8.66667L7.28 9.84665L7.5 9.21998L8.66667 9.66665H10.5333C10.7667 9.66665 10.9533 9.57331 11.1067 9.41998C11.26 9.26665 11.3333 9.07998 11.3333 8.87331C11.3333 8.51331 11.16 8.26665 10.8133 8.12665L5.96667 6.33331H4.66667V12.3333L9.33333 13.6666L14.6867 11.6666C14.6933 11.3133 14.56 11 14.3 10.7333ZM3.33333 6.33331H0.656V13.6666H3.33333V6.33331Z" fill="white"/>
</svg>
