<svg width="20" height="20" viewBox="0 0 20 20" fill="none" xmlns="http://www.w3.org/2000/svg">
<path fill-rule="evenodd" clip-rule="evenodd" d="M12.2933 1.59496C11.8264 2.23756 11.5433 2.99515 11.4743 3.78646C11.4052 4.57777 11.5529 5.37294 11.9015 6.08668C12.2501 6.80041 12.7865 7.40577 13.453 7.83782C14.1195 8.26987 14.8911 8.51231 15.685 8.53913V8.54829C15.6975 8.71329 15.71 8.88246 15.7267 9.04579C15.9242 10.9183 16.3742 12.2041 16.8067 13.0483C17.0942 13.6108 17.3767 13.9841 17.5767 14.21C17.6644 14.3095 17.7591 14.4028 17.86 14.4891L17.8683 14.4941C17.9753 14.5717 18.0548 14.6812 18.0957 14.8069C18.1365 14.9325 18.1364 15.0679 18.0955 15.1935C18.0546 15.3192 17.9749 15.4286 17.8679 15.5061C17.7609 15.5836 17.6321 15.6252 17.5 15.625H2.49999C2.36816 15.6248 2.23976 15.583 2.13314 15.5054C2.02652 15.4279 1.94715 15.3186 1.90637 15.1933C1.8656 15.0679 1.86552 14.9328 1.90613 14.8074C1.94674 14.682 2.02597 14.5726 2.13249 14.495L2.13916 14.4891L2.19249 14.4441C2.24249 14.3991 2.32333 14.3233 2.42333 14.21C2.62333 13.985 2.90583 13.6116 3.19333 13.0491C3.76833 11.925 4.37499 10.025 4.37499 6.99996C4.37499 5.43246 4.95833 3.92163 6.00833 2.80163C7.05999 1.67996 8.49499 1.04163 9.99999 1.04163C10.3189 1.04163 10.6336 1.06968 10.9442 1.12579C11.1425 1.16163 11.7925 1.36413 12.2933 1.59496Z" fill="#265DF7"/>
<path fill-rule="evenodd" clip-rule="evenodd" d="M12.7083 4.16663C12.7083 3.33782 13.0375 2.54297 13.6236 1.95692C14.2096 1.37087 15.0045 1.04163 15.8333 1.04163C16.6621 1.04163 17.4569 1.37087 18.043 1.95692C18.629 2.54297 18.9583 3.33782 18.9583 4.16663C18.9583 4.99543 18.629 5.79028 18.043 6.37634C17.4569 6.96239 16.6621 7.29163 15.8333 7.29163C15.0045 7.29163 14.2096 6.96239 13.6236 6.37634C13.0375 5.79028 12.7083 4.99543 12.7083 4.16663ZM8.24495 16.9591C8.31597 16.918 8.3944 16.8912 8.47577 16.8804C8.55713 16.8695 8.63984 16.8748 8.71915 16.896C8.79847 16.9171 8.87285 16.9536 8.93805 17.0035C9.00324 17.0534 9.05797 17.1156 9.09911 17.1866C9.19071 17.3444 9.32213 17.4753 9.48022 17.5663C9.63831 17.6574 9.81753 17.7053 9.99995 17.7053C10.1824 17.7053 10.3616 17.6574 10.5197 17.5663C10.6778 17.4753 10.8092 17.3444 10.9008 17.1866C10.942 17.1156 10.9968 17.0534 11.062 17.0035C11.1273 16.9537 11.2017 16.9172 11.281 16.8961C11.3604 16.875 11.4431 16.8698 11.5245 16.8806C11.6059 16.8915 11.6843 16.9183 11.7554 16.9595C11.8264 17.0007 11.8886 17.0555 11.9385 17.1208C11.9883 17.186 12.0248 17.2605 12.0459 17.3398C12.067 17.4192 12.0722 17.5019 12.0613 17.5833C12.0505 17.6647 12.0237 17.7431 11.9824 17.8141C11.781 18.1615 11.4919 18.4499 11.1439 18.6503C10.796 18.8507 10.4015 18.9563 9.99995 18.9563C9.5984 18.9563 9.2039 18.8507 8.85597 18.6503C8.50803 18.4499 8.21887 18.1615 8.01745 17.8141C7.97617 17.7431 7.9493 17.6646 7.93839 17.5831C7.92748 17.5017 7.93275 17.4189 7.95388 17.3394C7.97501 17.26 8.01159 17.1856 8.06154 17.1203C8.11149 17.055 8.17381 17.0003 8.24495 16.9591Z" fill="#265DF7"/>
</svg>
