<svg width="14" height="15" viewBox="0 0 14 15" fill="none" xmlns="http://www.w3.org/2000/svg">
<path d="M13 8.498H8V13.498C8 13.7632 7.89464 14.0176 7.70711 14.2051C7.51957 14.3926 7.26522 14.498 7 14.498C6.73478 14.498 6.48043 14.3926 6.29289 14.2051C6.10536 14.0176 6 13.7632 6 13.498V8.498H1C0.734784 8.498 0.48043 8.39264 0.292893 8.20511C0.105357 8.01757 0 7.76322 0 7.498C0 7.23278 0.105357 6.97843 0.292893 6.79089C0.48043 6.60336 0.734784 6.498 1 6.498H6V1.498C6 1.23278 6.10536 0.97843 6.29289 0.790894C6.48043 0.603358 6.73478 0.498001 7 0.498001C7.26522 0.498001 7.51957 0.603358 7.70711 0.790894C7.89464 0.97843 8 1.23278 8 1.498V6.498H13C13.2652 6.498 13.5196 6.60336 13.7071 6.79089C13.8946 6.97843 14 7.23278 14 7.498C14 7.76322 13.8946 8.01757 13.7071 8.20511C13.5196 8.39264 13.2652 8.498 13 8.498Z" fill="white"/>
</svg>
