<svg width="17" height="18" viewBox="0 0 17 18" fill="none" xmlns="http://www.w3.org/2000/svg">
<path fill-rule="evenodd" clip-rule="evenodd" d="M9.89919 0.793293C9.59085 0.666626 9.19919 0.666626 8.41669 0.666626C7.63419 0.666626 7.24335 0.666626 6.93419 0.793293C6.73076 0.876414 6.54578 0.998944 6.38989 1.15383C6.234 1.30872 6.11028 1.49291 6.02585 1.69579C5.94752 1.88163 5.91752 2.09913 5.90502 2.41496C5.89907 2.64371 5.83507 2.86719 5.71904 3.06442C5.60301 3.26165 5.43875 3.42615 5.24168 3.54246C5.04064 3.65421 4.81464 3.71341 4.58462 3.71458C4.35461 3.71574 4.12802 3.65884 3.92585 3.54913C3.64419 3.40079 3.44002 3.31913 3.23835 3.29246C2.79717 3.2349 2.35107 3.35346 1.99669 3.62246C1.73169 3.82413 1.53585 4.16079 1.14502 4.83329C0.753352 5.50579 0.558352 5.84163 0.514185 6.17079C0.455852 6.60913 0.575852 7.05246 0.847519 7.40329C0.970852 7.56329 1.14502 7.69746 1.41419 7.86579C1.81169 8.11329 2.06669 8.53496 2.06669 8.99996C2.06669 9.46496 1.81169 9.88663 1.41502 10.1333C1.14502 10.3025 0.970852 10.4366 0.846685 10.5966C0.712991 10.7701 0.61481 10.9683 0.557757 11.1798C0.500704 11.3913 0.485898 11.6119 0.514185 11.8291C0.558352 12.1575 0.753352 12.4941 1.14502 13.1666C1.53669 13.8391 1.73169 14.175 1.99669 14.3775C2.35002 14.6466 2.79669 14.765 3.23835 14.7075C3.44002 14.6808 3.64419 14.5991 3.92585 14.4508C4.12812 14.3409 4.35487 14.2839 4.58504 14.2851C4.81522 14.2863 5.04137 14.3456 5.24252 14.4575C5.64752 14.6908 5.88752 15.12 5.90502 15.585C5.91752 15.9016 5.94752 16.1183 6.02585 16.3041C6.19585 16.7125 6.52252 17.0375 6.93419 17.2066C7.24252 17.3333 7.63419 17.3333 8.41669 17.3333C9.19919 17.3333 9.59085 17.3333 9.89919 17.2066C10.1026 17.1235 10.2876 17.001 10.4435 16.8461C10.5994 16.6912 10.7231 16.507 10.8075 16.3041C10.8859 16.1183 10.9159 15.9016 10.9284 15.585C10.945 15.12 11.1859 14.69 11.5917 14.4575C11.7927 14.3457 12.0187 14.2865 12.2487 14.2853C12.4788 14.2842 12.7053 14.3411 12.9075 14.4508C13.1892 14.5991 13.3934 14.6808 13.595 14.7075C14.0367 14.7658 14.4834 14.6466 14.8367 14.3775C15.1017 14.1758 15.2975 13.8391 15.6884 13.1666C16.08 12.4941 16.275 12.1583 16.3192 11.8291C16.3474 11.6119 16.3324 11.3912 16.2752 11.1797C16.218 10.9682 16.1197 10.7701 15.9859 10.5966C15.8625 10.4366 15.6884 10.3025 15.4192 10.1341C15.0217 9.88663 14.7667 9.46496 14.7667 8.99996C14.7667 8.53496 15.0217 8.11329 15.4184 7.86663C15.6884 7.69746 15.8625 7.56329 15.9867 7.40329C16.1204 7.22978 16.2186 7.03162 16.2756 6.82014C16.3327 6.60866 16.3475 6.388 16.3192 6.17079C16.275 5.84246 16.08 5.50579 15.6884 4.83329C15.2967 4.16079 15.1017 3.82496 14.8367 3.62246C14.4823 3.35346 14.0362 3.2349 13.595 3.29246C13.3934 3.31913 13.1892 3.40079 12.9075 3.54913C12.7052 3.65898 12.4785 3.71597 12.2483 3.71481C12.0182 3.71364 11.792 3.65436 11.5909 3.54246C11.3939 3.42604 11.2298 3.2615 11.114 3.06428C10.9981 2.86706 10.9342 2.64363 10.9284 2.41496C10.9159 2.09829 10.8859 1.88163 10.8075 1.69579C10.7231 1.49291 10.5994 1.30872 10.4435 1.15383C10.2876 0.998944 10.1026 0.876414 9.89919 0.793293ZM8.41669 11.5C9.80835 11.5 10.9359 10.3808 10.9359 8.99996C10.9359 7.61913 9.80752 6.49996 8.41669 6.49996C7.02585 6.49996 5.89752 7.61913 5.89752 8.99996C5.89752 10.3808 7.02585 11.5 8.41669 11.5Z" fill="#265DF7"/>
</svg>
