<svg width="16" height="16" viewBox="0 0 16 16" fill="none" xmlns="http://www.w3.org/2000/svg">
<path fill-rule="evenodd" clip-rule="evenodd" d="M5.33333 2.66666C4.62609 2.66666 3.94781 2.94761 3.44772 3.4477C2.94762 3.9478 2.66667 4.62608 2.66667 5.33332C2.66667 6.04057 2.94762 6.71884 3.44772 7.21894C3.94781 7.71904 4.62609 7.99999 5.33333 7.99999C6.04058 7.99999 6.71885 7.71904 7.21895 7.21894C7.71905 6.71884 8 6.04057 8 5.33332C8 4.62608 7.71905 3.9478 7.21895 3.4477C6.71885 2.94761 6.04058 2.66666 5.33333 2.66666ZM4 8.66666C3.29276 8.66666 2.61448 8.94761 2.11438 9.4477C1.61429 9.9478 1.33333 10.6261 1.33333 11.3333V12C1.33333 12.3536 1.47381 12.6927 1.72386 12.9428C1.97391 13.1928 2.31305 13.3333 2.66667 13.3333H8C8.35362 13.3333 8.69276 13.1928 8.94281 12.9428C9.19286 12.6927 9.33333 12.3536 9.33333 12V11.3333C9.33333 10.6261 9.05238 9.9478 8.55229 9.4477C8.05219 8.94761 7.37391 8.66666 6.66667 8.66666H4ZM8.83333 7.26999C9.152 6.69666 9.33333 6.03666 9.33333 5.33332C9.33348 4.65561 9.16143 3.98898 8.83333 3.39599C9.21188 3.03781 9.68708 2.7984 10.2002 2.70734C10.7133 2.61629 11.2419 2.67758 11.7206 2.88365C12.1992 3.08971 12.607 3.43152 12.8936 3.86682C13.1801 4.30213 13.3328 4.81185 13.3328 5.33299C13.3328 5.85413 13.1801 6.36385 12.8936 6.79916C12.607 7.23446 12.1992 7.57627 11.7206 7.78233C11.2419 7.9884 10.7133 8.04969 10.2002 7.95864C9.68708 7.86758 9.21188 7.62817 8.83333 7.26999ZM10.3107 13.3333C10.5373 12.9413 10.6673 12.486 10.6673 12V11.3333C10.6686 10.3492 10.3057 9.39934 9.64867 8.66666H12C12.7072 8.66666 13.3855 8.94761 13.8856 9.4477C14.3857 9.9478 14.6667 10.6261 14.6667 11.3333V12C14.6667 12.3536 14.5262 12.6927 14.2761 12.9428C14.0261 13.1928 13.687 13.3333 13.3333 13.3333H10.3107Z" fill="white"/>
</svg>
